<?xml version="1.0" encoding="utf-8"?>
<!-- Generator: Adobe Illustrator 24.2.0, SVG Export Plug-In . SVG Version: 6.00 Build 0)  -->
<svg version="1.1" id="レイヤー_1" xmlns="http://www.w3.org/2000/svg" xmlns:xlink="http://www.w3.org/1999/xlink" x="0px"
	 y="0px" viewBox="0 0 512 512" style="enable-background:new 0 0 512 512;" xml:space="preserve">
<style type="text/css">
	.st0{fill:#FFFFFF;}
</style>
<g>
	<g>
		<path class="st0" d="M255.5,0C113.84,0-1,114.84-1,256.5S113.84,513,255.5,513S512,398.16,512,256.5S397.16,0,255.5,0z M410,260.5
			c0,5.77-4.72,10.5-10.5,10.5H271v129.5c0,5.77-4.72,10.5-10.5,10.5h-9c-5.78,0-10.5-4.73-10.5-10.5V271H111.5
			c-5.78,0-10.5-4.73-10.5-10.5v-9c0-5.78,4.72-10.5,10.5-10.5H241V112.5c0-5.78,4.72-10.5,10.5-10.5h9c5.78,0,10.5,4.72,10.5,10.5
			V241h128.5c5.78,0,10.5,4.72,10.5,10.5V260.5z"/>
	</g>
</g>
</svg>
